<?xml version="1.0" encoding="UTF-8" standalone="no"?>
<!-- Generator: Adobe Illustrator 15.0.2, SVG Export Plug-In . SVG Version: 6.00 Build 0)  -->

<svg
   xmlns:dc="http://purl.org/dc/elements/1.1/"
   xmlns:cc="http://creativecommons.org/ns#"
   xmlns:rdf="http://www.w3.org/1999/02/22-rdf-syntax-ns#"
   xmlns:svg="http://www.w3.org/2000/svg"
   xmlns="http://www.w3.org/2000/svg"
   xmlns:sodipodi="http://sodipodi.sourceforge.net/DTD/sodipodi-0.dtd"
   xmlns:inkscape="http://www.inkscape.org/namespaces/inkscape"
   version="1.0"
   id="svg5692"
   inkscape:export-ydpi="90"
   inkscape:export-xdpi="90"
   inkscape:export-filename="/media/home1/robert/svn/graphics/trunk/toolbar-icons/32x32/table-field-create.png"
   sodipodi:docname="mIconDataDefineEdit.svg"
   inkscape:version="0.48.4 r9939"
   x="0px"
   y="0px"
   width="24px"
   height="24px"
   viewBox="4 4 24 24"
   enable-background="new 4 4 24 24"
   xml:space="preserve"><metadata
     id="metadata35"><rdf:RDF><cc:Work
         rdf:about=""><dc:format>image/svg+xml</dc:format><dc:type
           rdf:resource="http://purl.org/dc/dcmitype/StillImage" /><dc:title /></cc:Work></rdf:RDF></metadata><defs
     id="defs33" /><sodipodi:namedview
     pagecolor="#ffffff"
     bordercolor="#666666"
     borderopacity="1"
     objecttolerance="10"
     gridtolerance="10"
     guidetolerance="10"
     inkscape:pageopacity="0"
     inkscape:pageshadow="2"
     inkscape:window-width="979"
     inkscape:window-height="673"
     id="namedview31"
     showgrid="false"
     inkscape:zoom="9.8333333"
     inkscape:cx="4.136048"
     inkscape:cy="-4.9870718"
     inkscape:window-x="65"
     inkscape:window-y="24"
     inkscape:window-maximized="0"
     inkscape:current-layer="svg5692" /><path
     id="rect8772"
     sodipodi:nodetypes="ccccccccc"
     display="none"
     fill="#FCF192"
     stroke="#C4A000"
     stroke-linecap="round"
     stroke-linejoin="round"
     d="  M9.341,8.199v9.471v2.525v3.159h12.514v-3.159V17.67V8.199H9.341z" /><g
     id="g3841"
     transform="translate(-3.559082,-3.097165)"
     display="none"><g
       display="inline"
       id="g17"><path
         id="path3002"
         fill="#5C3566"
         d="M17.507,18.455c-1.573-0.56-2.361-1.408-2.361-2.542c0-0.896,0.416-1.611,1.246-2.147    c0.839-0.535,1.878-0.803,3.116-0.803c1.125,0,2.016,0.188,2.68,0.563c0.664,0.369,0.996,0.812,0.996,1.332    c0,0.271-0.104,0.511-0.312,0.72c-0.207,0.2-0.447,0.3-0.719,0.3c-0.447,0-0.816-0.312-1.104-0.936    c-0.397-0.863-0.995-1.295-1.792-1.295c-0.63,0-1.151,0.208-1.559,0.623c-0.408,0.416-0.612,0.996-0.612,1.74    c0,1.462,0.757,2.195,2.268,2.195c0.159,0,0.342-0.016,0.549-0.048c0.359-0.047,0.637-0.071,0.837-0.071    c0.485,0,0.729,0.14,0.729,0.419c0,0.312-0.248,0.467-0.742,0.467c-0.175,0-0.438-0.028-0.789-0.084    c-0.264-0.048-0.467-0.071-0.609-0.071c-1.6,0-2.398,0.812-2.398,2.44c0,0.791,0.212,1.431,0.636,1.919    c0.424,0.479,1.017,0.72,1.774,0.72c0.949,0,1.577-0.492,1.888-1.477c0.16-0.519,0.336-0.879,0.527-1.079    c0.201-0.199,0.465-0.3,0.793-0.3c0.271,0,0.514,0.101,0.73,0.3c0.225,0.192,0.336,0.44,0.336,0.744    c0,0.728-0.408,1.331-1.223,1.812c-0.816,0.471-1.802,0.707-2.958,0.707c-1.27,0-2.401-0.304-3.391-0.911    c-0.983-0.608-1.475-1.42-1.475-2.435C14.57,19.984,15.549,19.053,17.507,18.455" /><path
         id="path3778"
         sodipodi:nodetypes="csss"
         opacity="0.5"
         fill="#FFFFFF"
         enable-background="new    "
         d="M16.513,14.965    c-1.483,1.602-1.146-0.264-0.257-0.906c0.921-0.666,1.438-0.649,1.431-0.446C17.679,13.852,16.98,14.461,16.513,14.965z" /><path
         id="path3807"
         sodipodi:nodetypes="csss"
         opacity="0.5"
         fill="#FFFFFF"
         enable-background="new    "
         d="M16.015,20.125    c-1.485,1.601-1.23,0.119-0.34-0.52c0.92-0.663,1.437-0.646,1.43-0.443C17.097,19.4,16.479,19.625,16.015,20.125z" /><path
         id="path3809"
         sodipodi:nodetypes="css"
         opacity="0.5"
         fill="#FFFFFF"
         enable-background="new    "
         d="M22.532,21.915    c-1.432,1.598-1.322,0.08-0.402-0.509C22.833,20.957,23.04,21.345,22.532,21.915z" /></g></g><g
     display="none"
     id="g23"><path
       id="path7926"
       display="inline"
       fill="none"
       stroke="#888A85"
       stroke-linecap="round"
       stroke-linejoin="round"
       d="   M9.341,8.199v15.156h12.514V8.199H9.341L9.341,8.199z" /><rect
       id="rect8700"
       x="9.342"
       y="8.22"
       display="inline"
       fill="none"
       stroke="#888A85"
       stroke-linecap="round"
       stroke-linejoin="round"
       width="12.511"
       height="7.559" /><g
       display="inline"
       id="g27"><path
         id="path8729_1_"
         sodipodi:nodetypes="cc"
         fill="none"
         stroke="#555753"
         stroke-width="2"
         stroke-linecap="round"
         stroke-linejoin="round"
         d="    M12.325,11.955H18.9" /><path
         id="path8742_1_"
         sodipodi:nodetypes="cc"
         fill="none"
         stroke="#555753"
         stroke-linecap="round"
         stroke-linejoin="round"
         d="    M12.494,19.405h6.577" /></g></g><path
     inkscape:connector-curvature="0"
     d="m 9.5,19.892 c 0,0.836 -0.284,1.193 -0.631,0.792 L 5.098,16.333 C 4.75,15.932 4.75,15.275 5.098,14.874 L 8.869,10.515 C 9.216,10.113 9.5,10.47 9.5,11.307 v 8.585 z"
     id="path3-5"
     style="fill:#939598;stroke:#4f5052;stroke-width:1;stroke-miterlimit:4;stroke-opacity:1;stroke-dasharray:none" /><path
     style="fill:#ffffff"
     inkscape:connector-curvature="0"
     id="path7926_2_"
     d="M 9.341,8.1989998 V 23.355 H 21.855 V 8.1989998 H 9.341 l 0,0 z" /><path
     id="rect8772_1_-9"
     sodipodi:nodetypes="ccccccccc"
     d="m 9.5001508,8.5001504 v 9.3739456 2.499125 3.126628 H 21.499849 V 20.373221 17.874096 8.5001504 H 9.5001508 z"
     inkscape:connector-curvature="0"
     style="fill:#fbf091;fill-opacity:1;stroke:#c4a000;stroke-width:1.00030172;stroke-linecap:round;stroke-linejoin:round;stroke-miterlimit:4;stroke-opacity:1;stroke-dasharray:none" /><rect
     style="fill:none;stroke:#c4a000;stroke-width:0.99950027;stroke-linecap:round;stroke-linejoin:round;stroke-miterlimit:4;stroke-opacity:1;stroke-dasharray:none"
     height="7.0004997"
     width="12.0005"
     y="8.4997492"
     x="9.4997501"
     id="rect8700_1_" /><path
     id="path8729"
     sodipodi:nodetypes="cc"
     d="m 12.385873,12.01188 h 6.401641"
     inkscape:connector-curvature="0"
     style="fill:none;stroke:#58595b;stroke-width:1.97623944000000007;stroke-linecap:round;stroke-linejoin:round;stroke-opacity:0.369863" /><path
     id="path8742"
     sodipodi:nodetypes="cc"
     d="m 12.397875,19.50594 h 6.403589"
     inkscape:connector-curvature="0"
     style="fill:none;stroke:#58595b;stroke-width:0.98811972000000003;stroke-linecap:round;stroke-linejoin:round;stroke-opacity:0.29223743" /><path
     inkscape:connector-curvature="0"
     sodipodi:nodetypes="cccc"
     id="path4701"
     d="m 14.240991,16.409956 3.665217,2.137038 -4.374521,3.199782 0.709304,-5.33682 z"
     style="fill:#505050;fill-opacity:1;fill-rule:nonzero;stroke:#484848;stroke-width:0.53163760999999998;stroke-linecap:round;stroke-linejoin:round;stroke-miterlimit:4;stroke-opacity:1;stroke-dasharray:none;stroke-dashoffset:0.50000000000000000;marker:none;visibility:visible;display:inline;overflow:visible;enable-background:accumulate" /><path
     inkscape:connector-curvature="0"
     style="fill:#868686;fill-opacity:1;fill-rule:nonzero;stroke:#969696;stroke-width:0.28955959999999997;stroke-linecap:square;stroke-linejoin:round;stroke-miterlimit:4;stroke-opacity:1;stroke-dasharray:none;stroke-dashoffset:0.50000000000000000;marker:none;visibility:visible;display:inline;overflow:visible;enable-background:accumulate"
     d="m 14.268785,20.59599 3.005363,-2.274247 -1.463453,-0.688291 z"
     id="path4746"
     sodipodi:nodetypes="cccc" /><path
     inkscape:connector-curvature="0"
     sodipodi:nodetypes="cccc"
     id="path4529"
     d="m 14.27234,20.437946 0.628542,-3.611023 1.143671,0.697476 z"
     style="fill:#f0f0f0;fill-opacity:1;fill-rule:nonzero;stroke:none;stroke-width:0.27790168;marker:none;visibility:visible;display:inline;overflow:visible;enable-background:accumulate" /><path
     inkscape:connector-curvature="0"
     sodipodi:nodetypes="ccccc"
     id="path4699"
     d="M 20.236644,5.9224864 23.901862,8.0595244 17.906208,18.546994 14.240991,16.409956 20.236644,5.9224864"
     style="fill:#de6b37;fill-opacity:1;fill-rule:nonzero;stroke:#c04317;stroke-width:0.53163755;stroke-linecap:round;stroke-linejoin:round;stroke-miterlimit:4;stroke-opacity:1;stroke-dasharray:none;stroke-dashoffset:0.5;marker:none;visibility:visible;display:inline;overflow:visible;enable-background:accumulate" /><path
     inkscape:connector-curvature="0"
     sodipodi:nodetypes="cc"
     id="path2893"
     d="M 21.068668,7.2641879 15.498041,17.00821"
     style="opacity:0.5;fill:none;stroke:#f8b008;stroke-width:1.49282753;stroke-linecap:butt;stroke-linejoin:round;stroke-miterlimit:4;stroke-opacity:1;stroke-dasharray:none;stroke-dashoffset:0.5;marker:none;visibility:visible;display:inline;overflow:visible;enable-background:accumulate" /><path
     inkscape:connector-curvature="0"
     sodipodi:nodetypes="cc"
     id="path2895"
     d="M 22.678497,8.1907619 16.933644,18.124165"
     style="opacity:0.04938272;fill:#000000;fill-opacity:0.58823528999999997;fill-rule:nonzero;stroke:#632923;stroke-width:1.53065383000000010;stroke-linecap:butt;stroke-linejoin:round;stroke-miterlimit:4;stroke-opacity:1;stroke-dasharray:none;stroke-dashoffset:0.50000000000000000;marker:none;visibility:visible;display:inline;overflow:visible;enable-background:accumulate" /><rect
     y="-5.8697629"
     x="20.345276"
     height="1.5485101"
     width="4.5690913"
     id="rect4748"
     style="fill:#e6e6e6;fill-opacity:1;fill-rule:nonzero;stroke:#727272;stroke-width:0.35400643;stroke-linecap:round;stroke-linejoin:round;stroke-miterlimit:4;stroke-opacity:1;stroke-dasharray:none;stroke-dashoffset:0.50000000000000000;marker:none;visibility:visible;display:inline;overflow:visible;enable-background:accumulate"
     transform="matrix(0.86388194,0.50369435,-0.49631457,0.86814276,0,0)" /></svg>